<svg id="Layer_1" data-name="Layer 1" xmlns="http://www.w3.org/2000/svg" xmlns:xlink="http://www.w3.org/1999/xlink" viewBox="0 0 200 200"><defs><style>.cls-1{fill:url(#linear-gradient);}</style><linearGradient id="linear-gradient" x1="24.82" y1="99.86" x2="174.82" y2="99.86" gradientUnits="userSpaceOnUse"><stop offset="0" stop-color="#04c4f4"/><stop offset="0.48" stop-color="#376bf4"/><stop offset="0.6" stop-color="#434fee"/><stop offset="0.76" stop-color="#502ee7"/><stop offset="0.89" stop-color="#5919e3"/><stop offset="0.98" stop-color="#5c12e1"/></linearGradient></defs><path id="Color_Icon_no_words" data-name="Color Icon no words" class="cls-1" d="M82.43,166.32h81a11.39,11.39,0,0,0,9.86-17.08l-.06-.11L162,129.61l-14.22,9.77,5.63,9.75H112.22l20.57-35.63,6.32,10.94,14.21-9.77L142.72,96.3l-9.93-17.2-6.56-11.35-9.92-17.19-6.62-11.47a11.39,11.39,0,0,0-19.73,0L26.37,149.24a11.38,11.38,0,0,0,9.86,17.08h0L51.54,140,99.82,56.41l6.56,11.34-47,81.38-9.93,17.19H70.14l9.14-17.19h0l.36-.62L116.31,85l6.55,11.35-30.5,52.83Z"/></svg>
